<svg width="32" height="32" viewBox="0 0 32 32" fill="none" xmlns="http://www.w3.org/2000/svg">
  <defs>
    <linearGradient id="grad1" x1="0%" y1="0%" x2="100%" y2="100%">
      <stop offset="0%" style="stop-color:#3B82F6;stop-opacity:1" />
      <stop offset="100%" style="stop-color:#8B5CF6;stop-opacity:1" />
    </linearGradient>
  </defs>
  
  <!-- Background circle -->
  <circle cx="16" cy="16" r="15" fill="url(#grad1)" stroke="#1F2937" stroke-width="1"/>
  
  <!-- Brain/Intelligence icon -->
  <path d="M16 8C12.5 8 10 10.5 10 14C10 16.5 11.5 18.5 13.5 19.5C13.2 20.2 13 21 13 21.8C13 23.5 14.5 25 16.2 25C17.9 25 19.4 23.5 19.4 21.8C19.4 21 19.2 20.2 18.9 19.5C20.9 18.5 22.4 16.5 22.4 14C22.4 10.5 19.9 8 16.4 8H16Z" fill="white" opacity="0.9"/>
  
  <!-- Circuit lines -->
  <path d="M8 12L12 12" stroke="white" stroke-width="1.5" stroke-linecap="round" opacity="0.7"/>
  <path d="M20 12L24 12" stroke="white" stroke-width="1.5" stroke-linecap="round" opacity="0.7"/>
  <path d="M8 20L12 20" stroke="white" stroke-width="1.5" stroke-linecap="round" opacity="0.7"/>
  <path d="M20 20L24 20" stroke="white" stroke-width="1.5" stroke-linecap="round" opacity="0.7"/>
  
  <!-- Dots representing data points -->
  <circle cx="10" cy="12" r="1" fill="white" opacity="0.8"/>
  <circle cx="22" cy="12" r="1" fill="white" opacity="0.8"/>
  <circle cx="10" cy="20" r="1" fill="white" opacity="0.8"/>
  <circle cx="22" cy="20" r="1" fill="white" opacity="0.8"/>
  
  <!-- Central dot -->
  <circle cx="16" cy="16" r="2" fill="white" opacity="0.9"/>
</svg> 